<svg xmlns="http://www.w3.org/2000/svg" width="1200" height="430" viewBox="0 0 1200 430"><rect width="1200" height="430" fill="#f7f9fa"/><g font-family="Segoe UI,Microsoft YaHei"><text x="55" y="55" fill="#1c3442" font-size="32" font-weight="700">传感器控制链</text><g transform="translate(55 105)"><g fill="#fff" stroke="#2e7188" stroke-width="2"><rect width="155" height="100" rx="8"/><rect x="195" width="155" height="100" rx="8"/><rect x="390" width="155" height="100" rx="8"/><rect x="585" width="155" height="100" rx="8"/><rect x="780" width="155" height="100" rx="8"/><rect x="975" width="155" height="100" rx="8"/></g><g fill="#1c3442" font-size="21" font-weight="600" text-anchor="middle"><text x="78" y="42">采样</text><text x="273" y="42">去毛刺</text><text x="468" y="42">平滑 / 估计</text><text x="663" y="42">控制器</text><text x="858" y="42">输出保护</text><text x="1053" y="42">执行器</text></g><g fill="#627986" font-size="16" text-anchor="middle"><text x="78" y="72">ADC / UART</text><text x="273" y="72">Median3</text><text x="468" y="72">EMA / Kalman</text><text x="663" y="72">PID / LADRC</text><text x="858" y="72">Clamp / Slew</text><text x="1053" y="72">PWM / Motor</text></g><g stroke="#e06b3c" stroke-width="3" fill="#e06b3c"><path d="M155 50h40M350 50h40M545 50h40M740 50h40M935 50h40"/><path d="M195 50l-10-7v14zM390 50l-10-7v14zM585 50l-10-7v14zM780 50l-10-7v14zM975 50l-10-7v14z"/></g><path d="M1053 100v105H663v-105" fill="none" stroke="#7993a0" stroke-width="3" stroke-dasharray="8 6"/><text x="858" y="235" fill="#627986" text-anchor="middle" font-size="18">反馈：测量输出重新进入控制器</text></g><rect x="55" y="355" width="1090" height="45" rx="6" fill="#e7eef2"/><text x="600" y="385" fill="#405d6a" text-anchor="middle" font-size="18">每个模块只承担一个职责，便于独立测试、替换和定位问题</text></g></svg>